<?xml version="1.0" encoding="UTF-8"?>
<svg id="Layer_1" xmlns="http://www.w3.org/2000/svg" xmlns:xlink="http://www.w3.org/1999/xlink" version="1.1" viewBox="0 0 386.5 121.5">
  <!-- Generator: Adobe Illustrator 29.3.1, SVG Export Plug-In . SVG Version: 2.1.0 Build 151)  -->
  <defs>
    <style>
      .st0, .st1, .st2, .st3 {
        fill: none;
      }

      .st4 {
        fill: #cb0046;
      }

      .st5 {
        fill: #e6e6e6;
      }

      .st6 {
        font-size: 12px;
      }

      .st6, .st7, .st8, .st9, .st10 {
        isolation: isolate;
      }

      .st6, .st8 {
        font-family: MyriadPro-It, 'Myriad Pro';
        font-style: italic;
      }

      .st1 {
        stroke-dasharray: 2 2;
      }

      .st1, .st11, .st2, .st3 {
        stroke: #000;
      }

      .st8 {
        font-size: 14px;
      }

      .st12 {
        clip-path: url(#clippath-2);
      }

      .st11 {
        fill: #c8dcff;
        stroke-width: 1.5px;
      }

      .st2 {
        stroke-miterlimit: 10;
      }

      .st9 {
        font-size: 7.7px;
      }

      .st9, .st10 {
        font-family: Helvetica, Helvetica;
      }

      .st13 {
        fill: #7fbfff;
      }

      .st14 {
        clip-path: url(#clippath);
      }

      .st10 {
        font-size: 11px;
      }
    </style>
    <clipPath id="clippath">
      <path class="st0" d="M49,48.1l-13.7,50.1c19-9.7,38.5-13.6,61.2-13.6s40,5.6,59.1,15.5l-13.5-51.8c-14.6-3.4-30.8-5.2-46.4-5.2s-32.4,1.7-46.8,5h0Z"/>
    </clipPath>
    <clipPath id="clippath-1">
      <rect class="st0" x="30.2" y="32.5" width="131.1" height="78.9"/>
    </clipPath>
    <clipPath id="clippath-2">
      <path class="st0" d="M253.2,102.4l-13.7-50.1c19,9.7,38.5,13.6,61.2,13.6s41.4-5.6,60.5-15.5l-14.9,51.8c-14.6,3.4-30.8,5.2-46.4,5.2s-32.4-1.7-46.8-5h0Z"/>
    </clipPath>
    <clipPath id="clippath-3">
      <rect class="st0" x="234.5" y="39.1" width="131.1" height="78.9"/>
    </clipPath>
  </defs>
  <g>
    <path class="st3" d="M50.5,23.5c-.8-.3-1.6-.6-2.5-.8-7.5-2.1-15.5-1.3-23.7,1.9"/>
    <path d="M49.4,23.1l-2.2,1.5h0l4,.2c1.3.3,2.6.5,3.9.8-1.1-.8-2.2-1.6-3.2-2.4l-2.8-2.9h0l.3,2.7h0Z"/>
  </g>
  <g class="st14">
    <g>
      <polyline class="st5" points="30.2 8305.4 161.3 8305.4 161.3 111.4 30.2 111.4"/>
      <polyline class="st13" points="30.2 32.5 161.3 32.5 161.3 -8161.5 30.2 -8161.5"/>
    </g>
  </g>
  <path class="st11" d="M49,48.1l-13.7,50.1c19-9.7,37.4-13.6,60.1-13.6s42.5,5.6,61.7,15.5l-14.9-51.8c-14.6-3.4-30.8-5.2-46.4-5.2s-32.4,1.7-46.8,5Z"/>
  <g>
    <path class="st3" d="M127.6,110.9c-9.9-3.6-20.4-5.5-31.2-5.5s-25.4,2.7-37,7.7"/>
    <polygon points="127 108.5 133.4 113.2 125.6 112.3 127 108.5"/>
  </g>
  <path class="st1" d="M149.8,72.6c-16.9-5.6-34.9-8.6-53.7-8.6s-37.2,3.1-54.2,8.8"/>
  <line class="st1" x1="61.2" y1="120.7" x2="42.1" y2="73"/>
  <line class="st1" x1="131.9" y1="116.8" x2="149.3" y2="73"/>
  <g>
    <line class="st3" x1="146.5" y1="80.7" x2="172.6" y2="11.3"/>
    <path d="M172.1,12.4l-2.9.6h0c0-.1,3-3.4,3-3.4.8-1.2,1.6-2.5,2.4-3.7-.2,1.5-.4,2.9-.6,4.4v4.4h0l-1.8-2.3h0Z"/>
  </g>
  <g>
    <line class="st3" x1="140.9" y1="69.6" x2="173" y2="80.3"/>
    <polygon points="170.9 81.9 179.3 82.4 172.3 77.8 170.9 81.9"/>
  </g>
  <g>
    <line class="st3" x1="45.2" y1="80.6" x2="20.9" y2="18.9"/>
    <path d="M21.3,20.1l-1.8,2.4h0v-4.5c-.2-1.4-.5-2.9-.7-4.3.8,1.2,1.6,2.4,2.5,3.7l3,3.2h0l-2.9-.4h-.1Z"/>
  </g>
  <g>
    <line class="st3" x1="33.4" y1="75.5" x2="70.6" y2="62.9"/>
    <polygon points="69.9 65.4 76.9 60.7 68.5 61.3 69.9 65.4"/>
  </g>
  <g class="st7">
    <text class="st10" transform="translate(143.1 9.4)"><tspan x="0" y="0">e</tspan></text>
  </g>
  <g class="st7">
    <text class="st9" transform="translate(149.2 14)"><tspan x="0" y="0">2</tspan></text>
  </g>
  <g class="st7">
    <text class="st10" transform="translate(38.2 16)"><tspan x="0" y="0">e</tspan></text>
  </g>
  <g class="st7">
    <text class="st9" transform="translate(44.3 20.6)"><tspan x="0" y="0">1</tspan></text>
  </g>
  <g class="st7">
    <text class="st10" transform="translate(20.9 13.6)"><tspan x="0" y="0">x</tspan></text>
  </g>
  <g class="st7">
    <text class="st9" transform="translate(26.4 18.2)"><tspan x="0" y="0">1</tspan></text>
  </g>
  <g class="st7">
    <text class="st10" transform="translate(174.9 13.6)"><tspan x="0" y="0">x</tspan></text>
  </g>
  <g class="st7">
    <text class="st9" transform="translate(180.4 18.2)"><tspan x="0" y="0">2</tspan></text>
  </g>
  <g class="st7">
    <text class="st10" transform="translate(71.9 58.4)"><tspan x="0" y="0">s</tspan></text>
  </g>
  <g class="st7">
    <text class="st9" transform="translate(77.4 63)"><tspan x="0" y="0">1</tspan></text>
  </g>
  <g class="st7">
    <text class="st10" transform="translate(95.8 74.5)"><tspan x="0" y="0">L</tspan></text>
  </g>
  <g class="st7">
    <text class="st10" transform="translate(173.9 76)"><tspan x="0" y="0">s</tspan></text>
  </g>
  <g class="st7">
    <text class="st9" transform="translate(179.4 80.6)"><tspan x="0" y="0">2</tspan></text>
  </g>
  <g>
    <path class="st3" d="M138.9,17.2c1.2-.3,2.5-.5,3.8-.7,9-1.3,18,.4,26.9,4.5"/>
    <path d="M140.1,17l.7-2.6h0l-3.2,2.4c-1.2.6-2.4,1.3-3.6,1.9,1.3,0,2.7-.1,4-.2l4,.4h0l-2-1.9h.1Z"/>
  </g>
  <path class="st2" d="M40.5,116.7c11.2,0,11.2,4.3,22.4,4.3s11.2-4.3,22.4-4.3,11.2,4.3,22.4,4.3,11.2-4.3,22.4-4.3,11.2,4.3,22.4,4.3"/>
  <g>
    <path class="st3" d="M48,31.5c-2.6-.3-5.4,0-8.2,1.2"/>
    <path d="M46.9,31.4l-2,1.8h0l4-.3c1.3,0,2.7.2,4,.3-1.2-.6-2.4-1.3-3.5-1.9l-3.2-2.5h0s.7,2.6.7,2.6Z"/>
  </g>
  <g class="st7">
    <text class="st10" transform="translate(55.2 35.8)"><tspan x="0" y="0">e</tspan></text>
  </g>
  <g class="st7">
    <text class="st9" transform="translate(61.3 40.3)"><tspan x="0" y="0">1_rect</tspan></text>
  </g>
  <line class="st1" x1="43.1" y1="91.2" x2="39.7" y2="27.6"/>
  <line class="st1" x1="46.4" y1="57.4" x2="56.4" y2="19.3"/>
  <g class="st7">
    <text class="st10" transform="translate(108.3 32.6)"><tspan x="0" y="0">e</tspan></text>
  </g>
  <g class="st7">
    <text class="st9" transform="translate(114.5 37.2)"><tspan x="0" y="0">2_rect</tspan></text>
  </g>
  <g>
    <path class="st3" d="M141.7,28c2.4-.6,4.9-.5,7.6,0"/>
    <path d="M142.8,27.8l.5-2.7h0l-3,2.7c-1.1.7-2.2,1.5-3.4,2.2,1.3-.2,2.7-.4,4-.6h4l-2.1-1.7h0Z"/>
  </g>
  <line class="st1" x1="142.3" y1="48.5" x2="132.3" y2="10.4"/>
  <line class="st1" x1="150" y1="84.5" x2="149.9" y2="23.6"/>
  <circle class="st4" cx="42.1" cy="72.3" r="2.5"/>
  <circle class="st4" cx="149.3" cy="72.3" r="2.5"/>
  <g class="st7">
    <text class="st8" transform="translate(0 15.4)"><tspan x="0" y="0">A)</tspan></text>
  </g>
  <g>
    <path class="st3" d="M246.8,98.6c-2.6.3-5.4,0-8.2-1.2"/>
    <path d="M245.6,98.7l-.7,2.6h0l3.2-2.5c1.2-.6,2.4-1.3,3.5-1.9-1.3,0-2.7.2-4,.3l-4-.4h0l2,1.9Z"/>
  </g>
  <g class="st12">
    <g>
      <polyline class="st5" points="234.5 -8155 365.6 -8155 365.6 39.1 234.5 39.1"/>
      <polyline class="st13" points="234.5 117.9 365.6 117.9 365.6 8312 234.5 8312"/>
    </g>
  </g>
  <path class="st11" d="M253.2,102.4l-13.7-50.1c19,9.7,37.4,13.6,60.1,13.6s42.5-5.6,61.7-15.5l-14.9,51.8c-14.6,3.4-30.8,5.2-46.4,5.2s-32.4-1.7-46.8-5h0Z"/>
  <g>
    <path class="st3" d="M331.8,39.6c-9.9,3.6-20.4,5.5-31.2,5.5s-25.4-2.7-37-7.7"/>
    <polygon points="329.8 38.1 337.6 37.3 331.3 41.9 329.8 38.1"/>
  </g>
  <path class="st1" d="M354,77.8c-16.9,5.6-34.9,8.6-53.7,8.6s-37.2-3.1-54.2-8.8"/>
  <line class="st1" x1="269.6" y1="21" x2="234.5" y2="105.5"/>
  <line class="st1" x1="329.8" y1="18.2" x2="365.6" y2="107.7"/>
  <g>
    <line class="st3" x1="353.9" y1="78.2" x2="341.3" y2="46.5"/>
    <path d="M341.7,47.6l-1.8,2.4h0v-4.5c-.2-1.4-.5-2.9-.7-4.3.8,1.2,1.6,2.4,2.5,3.6l3,3.2h0l-2.9-.4h-.1Z"/>
  </g>
  <g>
    <line class="st3" x1="345.1" y1="80.8" x2="377.3" y2="70.1"/>
    <polygon points="376.5 72.7 383.6 68 375.2 68.5 376.5 72.7"/>
  </g>
  <g>
    <line class="st3" x1="245.8" y1="77.4" x2="258.6" y2="46.4"/>
    <path d="M258.1,47.6l-2.9.5h0c0,0,3.1-3.3,3.1-3.3.8-1.2,1.7-2.4,2.5-3.6-.3,1.4-.5,2.9-.8,4.3v4.4h-.1l-1.8-2.4h0Z"/>
  </g>
  <g>
    <line class="st3" x1="237.6" y1="75" x2="274.8" y2="87.6"/>
    <polygon points="272.7 89.2 281.1 89.7 274.1 85.1 272.7 89.2"/>
  </g>
  <g>
    <path class="st3" d="M353,98c2.5,0,4.9-.6,7.4-1.7"/>
    <path d="M354.2,98l1.7-2.1h0l-3.9.9c-1.3,0-2.7.2-4,.3,1.3.5,2.5.9,3.8,1.4l3.5,2h0s-1.1-2.5-1.1-2.5Z"/>
  </g>
  <path class="st2" d="M246.2,17.4c11.2,0,11.2,4.3,22.4,4.3s11.2-4.3,22.4-4.3,11.2,4.3,22.4,4.3,11.2-4.3,22.4-4.3,11.2,4.3,22.4,4.3"/>
  <g class="st7">
    <text class="st10" transform="translate(298.7 84.1)"><tspan x="0" y="0">L</tspan></text>
  </g>
  <g class="st7">
    <text class="st10" transform="translate(351.8 107.4)"><tspan x="0" y="0">e</tspan></text>
  </g>
  <g class="st7">
    <text class="st9" transform="translate(357.9 111.9)"><tspan x="0" y="0">2</tspan></text>
  </g>
  <g class="st7">
    <text class="st10" transform="translate(240.1 107.2)"><tspan x="0" y="0">e</tspan></text>
  </g>
  <g class="st7">
    <text class="st9" transform="translate(246.3 111.8)"><tspan x="0" y="0">1</tspan></text>
  </g>
  <g class="st7">
    <text class="st10" transform="translate(246.1 46.7)"><tspan x="0" y="0">x</tspan></text>
  </g>
  <g class="st7">
    <text class="st9" transform="translate(251.6 51.3)"><tspan x="0" y="0">1</tspan></text>
  </g>
  <g class="st7">
    <text class="st10" transform="translate(345.9 46.7)"><tspan x="0" y="0">x</tspan></text>
  </g>
  <g class="st7">
    <text class="st9" transform="translate(351.4 51.2)"><tspan x="0" y="0">2</tspan></text>
  </g>
  <g class="st7">
    <text class="st10" transform="translate(273.1 96.9)"><tspan x="0" y="0">s</tspan></text>
  </g>
  <g class="st7">
    <text class="st9" transform="translate(278.6 101.5)"><tspan x="0" y="0">1</tspan></text>
  </g>
  <g class="st7">
    <text class="st10" transform="translate(377.1 80.4)"><tspan x="0" y="0">s</tspan></text>
  </g>
  <g class="st7">
    <text class="st9" transform="translate(382.6 85)"><tspan x="0" y="0">2</tspan></text>
  </g>
  <circle class="st4" cx="353.8" cy="77.5" r="2.5"/>
  <circle class="st4" cx="246.2" cy="77.7" r="2.5"/>
  <g class="st7">
    <text class="st8" transform="translate(221.8 18.5)"><tspan x="0" y="0">B)</tspan></text>
  </g>
  <g class="st7">
    <text class="st10" transform="translate(36.6 107.7)"><tspan x="0" y="0">rho</tspan></text>
  </g>
  <g class="st7">
    <text class="st6" transform="translate(287.3 41.4)"><tspan x="0" y="0">angle</tspan></text>
  </g>
  <g class="st7">
    <text class="st10" transform="translate(137.3 111.9)"><tspan x="0" y="0">rho</tspan></text>
  </g>
  <g class="st7">
    <text class="st10" transform="translate(336.3 30.1)"><tspan x="0" y="0">rho</tspan></text>
  </g>
  <g class="st7">
    <text class="st10" transform="translate(247.7 31.4)"><tspan x="0" y="0">rho</tspan></text>
  </g>
  <g class="st7">
    <text class="st6" transform="translate(81.5 104)"><tspan x="0" y="0">angle</tspan></text>
  </g>
</svg>